<mxfile host="app.diagrams.net" modified="2022-12-31T14:08:03.879Z" agent="5.0 (Windows)" version="20.7.4" etag="foxiw8V4TVtAWI_0q0Ub" type="github">
  <diagram id="RKqH6QKQYmLNY-bdnL09" name="Page-1">
    <mxGraphModel dx="1194" dy="764" grid="1" gridSize="10" guides="1" tooltips="1" connect="1" arrows="1" fold="1" page="1" pageScale="1" pageWidth="827" pageHeight="1169" math="0" shadow="0">
      <root>
        <mxCell id="0" />
        <mxCell id="1" parent="0" />
        <mxCell id="12CUieCOk4w_82OdE9bO-1" value="Candidature" style="swimlane;fontStyle=0;childLayout=stackLayout;horizontal=1;startSize=30;horizontalStack=0;resizeParent=1;resizeParentMax=0;resizeLast=0;collapsible=1;marginBottom=0;whiteSpace=wrap;html=1;" vertex="1" parent="1">
          <mxGeometry x="40" y="540" width="140" height="90" as="geometry" />
        </mxCell>
        <mxCell id="12CUieCOk4w_82OdE9bO-2" value="&lt;u&gt;can_id&lt;/u&gt;" style="text;strokeColor=none;fillColor=none;align=left;verticalAlign=middle;spacingLeft=4;spacingRight=4;overflow=hidden;points=[[0,0.5],[1,0.5]];portConstraint=eastwest;rotatable=0;whiteSpace=wrap;html=1;" vertex="1" parent="12CUieCOk4w_82OdE9bO-1">
          <mxGeometry y="30" width="140" height="30" as="geometry" />
        </mxCell>
        <mxCell id="12CUieCOk4w_82OdE9bO-3" value="can_date" style="text;strokeColor=none;fillColor=none;align=left;verticalAlign=middle;spacingLeft=4;spacingRight=4;overflow=hidden;points=[[0,0.5],[1,0.5]];portConstraint=eastwest;rotatable=0;whiteSpace=wrap;html=1;" vertex="1" parent="12CUieCOk4w_82OdE9bO-1">
          <mxGeometry y="60" width="140" height="30" as="geometry" />
        </mxCell>
        <mxCell id="12CUieCOk4w_82OdE9bO-5" value="Offre" style="swimlane;fontStyle=0;childLayout=stackLayout;horizontal=1;startSize=30;horizontalStack=0;resizeParent=1;resizeParentMax=0;resizeLast=0;collapsible=1;marginBottom=0;whiteSpace=wrap;html=1;" vertex="1" parent="1">
          <mxGeometry x="400" y="360" width="140" height="270" as="geometry" />
        </mxCell>
        <mxCell id="12CUieCOk4w_82OdE9bO-6" value="&lt;u&gt;of_id&lt;/u&gt;" style="text;strokeColor=none;fillColor=none;align=left;verticalAlign=middle;spacingLeft=4;spacingRight=4;overflow=hidden;points=[[0,0.5],[1,0.5]];portConstraint=eastwest;rotatable=0;whiteSpace=wrap;html=1;" vertex="1" parent="12CUieCOk4w_82OdE9bO-5">
          <mxGeometry y="30" width="140" height="30" as="geometry" />
        </mxCell>
        <mxCell id="12CUieCOk4w_82OdE9bO-7" value="of_description" style="text;strokeColor=none;fillColor=none;align=left;verticalAlign=middle;spacingLeft=4;spacingRight=4;overflow=hidden;points=[[0,0.5],[1,0.5]];portConstraint=eastwest;rotatable=0;whiteSpace=wrap;html=1;" vertex="1" parent="12CUieCOk4w_82OdE9bO-5">
          <mxGeometry y="60" width="140" height="30" as="geometry" />
        </mxCell>
        <mxCell id="12CUieCOk4w_82OdE9bO-8" value="of_titre" style="text;strokeColor=none;fillColor=none;align=left;verticalAlign=middle;spacingLeft=4;spacingRight=4;overflow=hidden;points=[[0,0.5],[1,0.5]];portConstraint=eastwest;rotatable=0;whiteSpace=wrap;html=1;" vertex="1" parent="12CUieCOk4w_82OdE9bO-5">
          <mxGeometry y="90" width="140" height="30" as="geometry" />
        </mxCell>
        <mxCell id="12CUieCOk4w_82OdE9bO-24" value="of_cat" style="text;strokeColor=none;fillColor=none;align=left;verticalAlign=middle;spacingLeft=4;spacingRight=4;overflow=hidden;points=[[0,0.5],[1,0.5]];portConstraint=eastwest;rotatable=0;whiteSpace=wrap;html=1;" vertex="1" parent="12CUieCOk4w_82OdE9bO-5">
          <mxGeometry y="120" width="140" height="30" as="geometry" />
        </mxCell>
        <mxCell id="12CUieCOk4w_82OdE9bO-23" value="of_adresse" style="text;strokeColor=none;fillColor=none;align=left;verticalAlign=middle;spacingLeft=4;spacingRight=4;overflow=hidden;points=[[0,0.5],[1,0.5]];portConstraint=eastwest;rotatable=0;whiteSpace=wrap;html=1;" vertex="1" parent="12CUieCOk4w_82OdE9bO-5">
          <mxGeometry y="150" width="140" height="30" as="geometry" />
        </mxCell>
        <mxCell id="12CUieCOk4w_82OdE9bO-22" value="of_cp" style="text;strokeColor=none;fillColor=none;align=left;verticalAlign=middle;spacingLeft=4;spacingRight=4;overflow=hidden;points=[[0,0.5],[1,0.5]];portConstraint=eastwest;rotatable=0;whiteSpace=wrap;html=1;" vertex="1" parent="12CUieCOk4w_82OdE9bO-5">
          <mxGeometry y="180" width="140" height="30" as="geometry" />
        </mxCell>
        <mxCell id="12CUieCOk4w_82OdE9bO-21" value="of_ville" style="text;strokeColor=none;fillColor=none;align=left;verticalAlign=middle;spacingLeft=4;spacingRight=4;overflow=hidden;points=[[0,0.5],[1,0.5]];portConstraint=eastwest;rotatable=0;whiteSpace=wrap;html=1;" vertex="1" parent="12CUieCOk4w_82OdE9bO-5">
          <mxGeometry y="210" width="140" height="30" as="geometry" />
        </mxCell>
        <mxCell id="12CUieCOk4w_82OdE9bO-20" value="of_siret" style="text;strokeColor=none;fillColor=none;align=left;verticalAlign=middle;spacingLeft=4;spacingRight=4;overflow=hidden;points=[[0,0.5],[1,0.5]];portConstraint=eastwest;rotatable=0;whiteSpace=wrap;html=1;" vertex="1" parent="12CUieCOk4w_82OdE9bO-5">
          <mxGeometry y="240" width="140" height="30" as="geometry" />
        </mxCell>
        <mxCell id="12CUieCOk4w_82OdE9bO-45" style="edgeStyle=none;rounded=0;orthogonalLoop=1;jettySize=auto;html=1;exitX=0.5;exitY=1;exitDx=0;exitDy=0;entryX=0.5;entryY=0;entryDx=0;entryDy=0;endArrow=none;endFill=0;" edge="1" parent="1" source="12CUieCOk4w_82OdE9bO-9" target="12CUieCOk4w_82OdE9bO-38">
          <mxGeometry relative="1" as="geometry" />
        </mxCell>
        <mxCell id="12CUieCOk4w_82OdE9bO-9" value="Utilisateur" style="swimlane;fontStyle=0;childLayout=stackLayout;horizontal=1;startSize=30;horizontalStack=0;resizeParent=1;resizeParentMax=0;resizeLast=0;collapsible=1;marginBottom=0;whiteSpace=wrap;html=1;" vertex="1" parent="1">
          <mxGeometry x="40" y="80" width="140" height="360" as="geometry" />
        </mxCell>
        <mxCell id="12CUieCOk4w_82OdE9bO-10" value="&lt;u&gt;ut_id&lt;/u&gt;" style="text;strokeColor=none;fillColor=none;align=left;verticalAlign=middle;spacingLeft=4;spacingRight=4;overflow=hidden;points=[[0,0.5],[1,0.5]];portConstraint=eastwest;rotatable=0;whiteSpace=wrap;html=1;" vertex="1" parent="12CUieCOk4w_82OdE9bO-9">
          <mxGeometry y="30" width="140" height="30" as="geometry" />
        </mxCell>
        <mxCell id="12CUieCOk4w_82OdE9bO-11" value="ut_nom" style="text;strokeColor=none;fillColor=none;align=left;verticalAlign=middle;spacingLeft=4;spacingRight=4;overflow=hidden;points=[[0,0.5],[1,0.5]];portConstraint=eastwest;rotatable=0;whiteSpace=wrap;html=1;" vertex="1" parent="12CUieCOk4w_82OdE9bO-9">
          <mxGeometry y="60" width="140" height="30" as="geometry" />
        </mxCell>
        <mxCell id="12CUieCOk4w_82OdE9bO-12" value="ut_prenom" style="text;strokeColor=none;fillColor=none;align=left;verticalAlign=middle;spacingLeft=4;spacingRight=4;overflow=hidden;points=[[0,0.5],[1,0.5]];portConstraint=eastwest;rotatable=0;whiteSpace=wrap;html=1;" vertex="1" parent="12CUieCOk4w_82OdE9bO-9">
          <mxGeometry y="90" width="140" height="30" as="geometry" />
        </mxCell>
        <mxCell id="12CUieCOk4w_82OdE9bO-19" value="ut_type" style="text;strokeColor=none;fillColor=none;align=left;verticalAlign=middle;spacingLeft=4;spacingRight=4;overflow=hidden;points=[[0,0.5],[1,0.5]];portConstraint=eastwest;rotatable=0;whiteSpace=wrap;html=1;" vertex="1" parent="12CUieCOk4w_82OdE9bO-9">
          <mxGeometry y="120" width="140" height="30" as="geometry" />
        </mxCell>
        <mxCell id="12CUieCOk4w_82OdE9bO-18" value="ut_adresse" style="text;strokeColor=none;fillColor=none;align=left;verticalAlign=middle;spacingLeft=4;spacingRight=4;overflow=hidden;points=[[0,0.5],[1,0.5]];portConstraint=eastwest;rotatable=0;whiteSpace=wrap;html=1;" vertex="1" parent="12CUieCOk4w_82OdE9bO-9">
          <mxGeometry y="150" width="140" height="30" as="geometry" />
        </mxCell>
        <mxCell id="12CUieCOk4w_82OdE9bO-17" value="ut_cp" style="text;strokeColor=none;fillColor=none;align=left;verticalAlign=middle;spacingLeft=4;spacingRight=4;overflow=hidden;points=[[0,0.5],[1,0.5]];portConstraint=eastwest;rotatable=0;whiteSpace=wrap;html=1;" vertex="1" parent="12CUieCOk4w_82OdE9bO-9">
          <mxGeometry y="180" width="140" height="30" as="geometry" />
        </mxCell>
        <mxCell id="12CUieCOk4w_82OdE9bO-16" value="ut_ville" style="text;strokeColor=none;fillColor=none;align=left;verticalAlign=middle;spacingLeft=4;spacingRight=4;overflow=hidden;points=[[0,0.5],[1,0.5]];portConstraint=eastwest;rotatable=0;whiteSpace=wrap;html=1;" vertex="1" parent="12CUieCOk4w_82OdE9bO-9">
          <mxGeometry y="210" width="140" height="30" as="geometry" />
        </mxCell>
        <mxCell id="12CUieCOk4w_82OdE9bO-15" value="ut_siret" style="text;strokeColor=none;fillColor=none;align=left;verticalAlign=middle;spacingLeft=4;spacingRight=4;overflow=hidden;points=[[0,0.5],[1,0.5]];portConstraint=eastwest;rotatable=0;whiteSpace=wrap;html=1;" vertex="1" parent="12CUieCOk4w_82OdE9bO-9">
          <mxGeometry y="240" width="140" height="30" as="geometry" />
        </mxCell>
        <mxCell id="12CUieCOk4w_82OdE9bO-14" value="ut_cv" style="text;strokeColor=none;fillColor=none;align=left;verticalAlign=middle;spacingLeft=4;spacingRight=4;overflow=hidden;points=[[0,0.5],[1,0.5]];portConstraint=eastwest;rotatable=0;whiteSpace=wrap;html=1;" vertex="1" parent="12CUieCOk4w_82OdE9bO-9">
          <mxGeometry y="270" width="140" height="30" as="geometry" />
        </mxCell>
        <mxCell id="12CUieCOk4w_82OdE9bO-13" value="ut_mail" style="text;strokeColor=none;fillColor=none;align=left;verticalAlign=middle;spacingLeft=4;spacingRight=4;overflow=hidden;points=[[0,0.5],[1,0.5]];portConstraint=eastwest;rotatable=0;whiteSpace=wrap;html=1;" vertex="1" parent="12CUieCOk4w_82OdE9bO-9">
          <mxGeometry y="300" width="140" height="30" as="geometry" />
        </mxCell>
        <mxCell id="12CUieCOk4w_82OdE9bO-65" value="ut_mdp" style="text;strokeColor=none;fillColor=none;align=left;verticalAlign=middle;spacingLeft=4;spacingRight=4;overflow=hidden;points=[[0,0.5],[1,0.5]];portConstraint=eastwest;rotatable=0;whiteSpace=wrap;html=1;" vertex="1" parent="12CUieCOk4w_82OdE9bO-9">
          <mxGeometry y="330" width="140" height="30" as="geometry" />
        </mxCell>
        <mxCell id="12CUieCOk4w_82OdE9bO-25" value="Catégorie" style="swimlane;fontStyle=0;childLayout=stackLayout;horizontal=1;startSize=30;horizontalStack=0;resizeParent=1;resizeParentMax=0;resizeLast=0;collapsible=1;marginBottom=0;whiteSpace=wrap;html=1;" vertex="1" parent="1">
          <mxGeometry x="730" y="370" width="140" height="90" as="geometry" />
        </mxCell>
        <mxCell id="12CUieCOk4w_82OdE9bO-26" value="&lt;u&gt;cat_id&lt;/u&gt;" style="text;strokeColor=none;fillColor=none;align=left;verticalAlign=middle;spacingLeft=4;spacingRight=4;overflow=hidden;points=[[0,0.5],[1,0.5]];portConstraint=eastwest;rotatable=0;whiteSpace=wrap;html=1;" vertex="1" parent="12CUieCOk4w_82OdE9bO-25">
          <mxGeometry y="30" width="140" height="30" as="geometry" />
        </mxCell>
        <mxCell id="12CUieCOk4w_82OdE9bO-27" value="cat_nom" style="text;strokeColor=none;fillColor=none;align=left;verticalAlign=middle;spacingLeft=4;spacingRight=4;overflow=hidden;points=[[0,0.5],[1,0.5]];portConstraint=eastwest;rotatable=0;whiteSpace=wrap;html=1;" vertex="1" parent="12CUieCOk4w_82OdE9bO-25">
          <mxGeometry y="60" width="140" height="30" as="geometry" />
        </mxCell>
        <mxCell id="12CUieCOk4w_82OdE9bO-29" value="Ville" style="swimlane;fontStyle=0;childLayout=stackLayout;horizontal=1;startSize=30;horizontalStack=0;resizeParent=1;resizeParentMax=0;resizeLast=0;collapsible=1;marginBottom=0;whiteSpace=wrap;html=1;" vertex="1" parent="1">
          <mxGeometry x="400" y="80" width="140" height="120" as="geometry" />
        </mxCell>
        <mxCell id="12CUieCOk4w_82OdE9bO-30" value="&lt;u&gt;v_id&lt;/u&gt;" style="text;strokeColor=none;fillColor=none;align=left;verticalAlign=middle;spacingLeft=4;spacingRight=4;overflow=hidden;points=[[0,0.5],[1,0.5]];portConstraint=eastwest;rotatable=0;whiteSpace=wrap;html=1;" vertex="1" parent="12CUieCOk4w_82OdE9bO-29">
          <mxGeometry y="30" width="140" height="30" as="geometry" />
        </mxCell>
        <mxCell id="12CUieCOk4w_82OdE9bO-31" value="v_cp" style="text;strokeColor=none;fillColor=none;align=left;verticalAlign=middle;spacingLeft=4;spacingRight=4;overflow=hidden;points=[[0,0.5],[1,0.5]];portConstraint=eastwest;rotatable=0;whiteSpace=wrap;html=1;" vertex="1" parent="12CUieCOk4w_82OdE9bO-29">
          <mxGeometry y="60" width="140" height="30" as="geometry" />
        </mxCell>
        <mxCell id="12CUieCOk4w_82OdE9bO-32" value="v_nom" style="text;strokeColor=none;fillColor=none;align=left;verticalAlign=middle;spacingLeft=4;spacingRight=4;overflow=hidden;points=[[0,0.5],[1,0.5]];portConstraint=eastwest;rotatable=0;whiteSpace=wrap;html=1;" vertex="1" parent="12CUieCOk4w_82OdE9bO-29">
          <mxGeometry y="90" width="140" height="30" as="geometry" />
        </mxCell>
        <mxCell id="12CUieCOk4w_82OdE9bO-41" style="edgeStyle=none;rounded=0;orthogonalLoop=1;jettySize=auto;html=1;exitX=0;exitY=0.5;exitDx=0;exitDy=0;entryX=0.979;entryY=-0.033;entryDx=0;entryDy=0;entryPerimeter=0;endArrow=none;endFill=0;" edge="1" parent="1" source="12CUieCOk4w_82OdE9bO-33" target="12CUieCOk4w_82OdE9bO-11">
          <mxGeometry relative="1" as="geometry" />
        </mxCell>
        <mxCell id="12CUieCOk4w_82OdE9bO-42" style="edgeStyle=none;rounded=0;orthogonalLoop=1;jettySize=auto;html=1;exitX=1;exitY=0.5;exitDx=0;exitDy=0;entryX=0.007;entryY=0;entryDx=0;entryDy=0;entryPerimeter=0;endArrow=none;endFill=0;" edge="1" parent="1" source="12CUieCOk4w_82OdE9bO-33" target="12CUieCOk4w_82OdE9bO-31">
          <mxGeometry relative="1" as="geometry" />
        </mxCell>
        <mxCell id="12CUieCOk4w_82OdE9bO-33" value="habiter" style="ellipse;whiteSpace=wrap;html=1;" vertex="1" parent="1">
          <mxGeometry x="240" y="120" width="100" height="40" as="geometry" />
        </mxCell>
        <mxCell id="12CUieCOk4w_82OdE9bO-43" style="edgeStyle=none;rounded=0;orthogonalLoop=1;jettySize=auto;html=1;exitX=0.5;exitY=0;exitDx=0;exitDy=0;entryX=0.564;entryY=1.1;entryDx=0;entryDy=0;entryPerimeter=0;endArrow=none;endFill=0;" edge="1" parent="1" source="12CUieCOk4w_82OdE9bO-34" target="12CUieCOk4w_82OdE9bO-32">
          <mxGeometry relative="1" as="geometry" />
        </mxCell>
        <mxCell id="12CUieCOk4w_82OdE9bO-44" style="edgeStyle=none;rounded=0;orthogonalLoop=1;jettySize=auto;html=1;exitX=0.5;exitY=1;exitDx=0;exitDy=0;entryX=0.579;entryY=-0.004;entryDx=0;entryDy=0;entryPerimeter=0;endArrow=none;endFill=0;" edge="1" parent="1" source="12CUieCOk4w_82OdE9bO-34" target="12CUieCOk4w_82OdE9bO-5">
          <mxGeometry relative="1" as="geometry" />
        </mxCell>
        <mxCell id="12CUieCOk4w_82OdE9bO-34" value="contenir" style="ellipse;whiteSpace=wrap;html=1;" vertex="1" parent="1">
          <mxGeometry x="430" y="250" width="100" height="40" as="geometry" />
        </mxCell>
        <mxCell id="12CUieCOk4w_82OdE9bO-49" style="edgeStyle=none;rounded=0;orthogonalLoop=1;jettySize=auto;html=1;exitX=0;exitY=0.5;exitDx=0;exitDy=0;entryX=1.007;entryY=0.833;entryDx=0;entryDy=0;entryPerimeter=0;endArrow=none;endFill=0;" edge="1" parent="1" source="12CUieCOk4w_82OdE9bO-35" target="12CUieCOk4w_82OdE9bO-6">
          <mxGeometry relative="1" as="geometry" />
        </mxCell>
        <mxCell id="12CUieCOk4w_82OdE9bO-50" style="edgeStyle=orthogonalEdgeStyle;rounded=0;orthogonalLoop=1;jettySize=auto;html=1;exitX=1;exitY=0.5;exitDx=0;exitDy=0;entryX=0;entryY=0.5;entryDx=0;entryDy=0;endArrow=none;endFill=0;" edge="1" parent="1" source="12CUieCOk4w_82OdE9bO-35" target="12CUieCOk4w_82OdE9bO-26">
          <mxGeometry relative="1" as="geometry" />
        </mxCell>
        <mxCell id="12CUieCOk4w_82OdE9bO-35" value="faire partie" style="ellipse;whiteSpace=wrap;html=1;" vertex="1" parent="1">
          <mxGeometry x="590" y="395" width="100" height="40" as="geometry" />
        </mxCell>
        <mxCell id="12CUieCOk4w_82OdE9bO-51" style="edgeStyle=orthogonalEdgeStyle;rounded=0;orthogonalLoop=1;jettySize=auto;html=1;exitX=0;exitY=0.5;exitDx=0;exitDy=0;entryX=0.2;entryY=1.033;entryDx=0;entryDy=0;entryPerimeter=0;endArrow=none;endFill=0;" edge="1" parent="1" source="12CUieCOk4w_82OdE9bO-37" target="12CUieCOk4w_82OdE9bO-27">
          <mxGeometry relative="1" as="geometry" />
        </mxCell>
        <mxCell id="12CUieCOk4w_82OdE9bO-52" style="edgeStyle=orthogonalEdgeStyle;rounded=0;orthogonalLoop=1;jettySize=auto;html=1;exitX=1;exitY=0.5;exitDx=0;exitDy=0;entryX=0.914;entryY=1;entryDx=0;entryDy=0;entryPerimeter=0;endArrow=none;endFill=0;" edge="1" parent="1" source="12CUieCOk4w_82OdE9bO-37" target="12CUieCOk4w_82OdE9bO-27">
          <mxGeometry relative="1" as="geometry" />
        </mxCell>
        <mxCell id="12CUieCOk4w_82OdE9bO-37" value="avoir" style="ellipse;whiteSpace=wrap;html=1;" vertex="1" parent="1">
          <mxGeometry x="760" y="530" width="100" height="40" as="geometry" />
        </mxCell>
        <mxCell id="12CUieCOk4w_82OdE9bO-46" style="edgeStyle=none;rounded=0;orthogonalLoop=1;jettySize=auto;html=1;exitX=0.5;exitY=1;exitDx=0;exitDy=0;entryX=0.5;entryY=0;entryDx=0;entryDy=0;endArrow=none;endFill=0;" edge="1" parent="1" source="12CUieCOk4w_82OdE9bO-38" target="12CUieCOk4w_82OdE9bO-1">
          <mxGeometry relative="1" as="geometry" />
        </mxCell>
        <mxCell id="12CUieCOk4w_82OdE9bO-38" value="passer" style="ellipse;whiteSpace=wrap;html=1;" vertex="1" parent="1">
          <mxGeometry x="60" y="465" width="100" height="40" as="geometry" />
        </mxCell>
        <mxCell id="12CUieCOk4w_82OdE9bO-47" style="edgeStyle=none;rounded=0;orthogonalLoop=1;jettySize=auto;html=1;exitX=0;exitY=0.5;exitDx=0;exitDy=0;entryX=0.993;entryY=0.267;entryDx=0;entryDy=0;entryPerimeter=0;endArrow=none;endFill=0;" edge="1" parent="1" source="12CUieCOk4w_82OdE9bO-39" target="12CUieCOk4w_82OdE9bO-2">
          <mxGeometry relative="1" as="geometry" />
        </mxCell>
        <mxCell id="12CUieCOk4w_82OdE9bO-48" style="edgeStyle=none;rounded=0;orthogonalLoop=1;jettySize=auto;html=1;exitX=1;exitY=0.5;exitDx=0;exitDy=0;entryX=0;entryY=0.3;entryDx=0;entryDy=0;entryPerimeter=0;endArrow=none;endFill=0;" edge="1" parent="1" source="12CUieCOk4w_82OdE9bO-39" target="12CUieCOk4w_82OdE9bO-21">
          <mxGeometry relative="1" as="geometry" />
        </mxCell>
        <mxCell id="12CUieCOk4w_82OdE9bO-39" value="concerner" style="ellipse;whiteSpace=wrap;html=1;" vertex="1" parent="1">
          <mxGeometry x="240" y="560" width="100" height="40" as="geometry" />
        </mxCell>
        <mxCell id="12CUieCOk4w_82OdE9bO-53" value="1, 1" style="text;html=1;align=center;verticalAlign=middle;resizable=0;points=[];autosize=1;strokeColor=none;fillColor=none;" vertex="1" parent="1">
          <mxGeometry x="180" y="110" width="40" height="30" as="geometry" />
        </mxCell>
        <mxCell id="12CUieCOk4w_82OdE9bO-54" value="0, n" style="text;html=1;align=center;verticalAlign=middle;resizable=0;points=[];autosize=1;strokeColor=none;fillColor=none;" vertex="1" parent="1">
          <mxGeometry x="350" y="115" width="40" height="30" as="geometry" />
        </mxCell>
        <mxCell id="12CUieCOk4w_82OdE9bO-55" value="1, n" style="text;html=1;align=center;verticalAlign=middle;resizable=0;points=[];autosize=1;strokeColor=none;fillColor=none;" vertex="1" parent="1">
          <mxGeometry x="120" y="435" width="40" height="30" as="geometry" />
        </mxCell>
        <mxCell id="12CUieCOk4w_82OdE9bO-56" value="0,n" style="text;html=1;align=center;verticalAlign=middle;resizable=0;points=[];autosize=1;strokeColor=none;fillColor=none;" vertex="1" parent="1">
          <mxGeometry x="110" y="515" width="40" height="30" as="geometry" />
        </mxCell>
        <mxCell id="12CUieCOk4w_82OdE9bO-57" value="1, 1" style="text;html=1;align=center;verticalAlign=middle;resizable=0;points=[];autosize=1;strokeColor=none;fillColor=none;" vertex="1" parent="1">
          <mxGeometry x="180" y="545" width="40" height="30" as="geometry" />
        </mxCell>
        <mxCell id="12CUieCOk4w_82OdE9bO-58" value="0, n" style="text;html=1;align=center;verticalAlign=middle;resizable=0;points=[];autosize=1;strokeColor=none;fillColor=none;" vertex="1" parent="1">
          <mxGeometry x="350" y="545" width="40" height="30" as="geometry" />
        </mxCell>
        <mxCell id="12CUieCOk4w_82OdE9bO-59" value="1, 1" style="text;html=1;align=center;verticalAlign=middle;resizable=0;points=[];autosize=1;strokeColor=none;fillColor=none;" vertex="1" parent="1">
          <mxGeometry x="480" y="325" width="40" height="30" as="geometry" />
        </mxCell>
        <mxCell id="12CUieCOk4w_82OdE9bO-60" value="0, n" style="text;html=1;align=center;verticalAlign=middle;resizable=0;points=[];autosize=1;strokeColor=none;fillColor=none;" vertex="1" parent="1">
          <mxGeometry x="480" y="205" width="40" height="30" as="geometry" />
        </mxCell>
        <mxCell id="12CUieCOk4w_82OdE9bO-61" value="1, n" style="text;html=1;align=center;verticalAlign=middle;resizable=0;points=[];autosize=1;strokeColor=none;fillColor=none;" vertex="1" parent="1">
          <mxGeometry x="540" y="385" width="40" height="30" as="geometry" />
        </mxCell>
        <mxCell id="12CUieCOk4w_82OdE9bO-62" value="0, n" style="text;html=1;align=center;verticalAlign=middle;resizable=0;points=[];autosize=1;strokeColor=none;fillColor=none;" vertex="1" parent="1">
          <mxGeometry x="690" y="385" width="40" height="30" as="geometry" />
        </mxCell>
        <mxCell id="12CUieCOk4w_82OdE9bO-63" value="0, n" style="text;html=1;align=center;verticalAlign=middle;resizable=0;points=[];autosize=1;strokeColor=none;fillColor=none;" vertex="1" parent="1">
          <mxGeometry x="710" y="465" width="40" height="30" as="geometry" />
        </mxCell>
        <mxCell id="12CUieCOk4w_82OdE9bO-64" value="0, 1" style="text;html=1;align=center;verticalAlign=middle;resizable=0;points=[];autosize=1;strokeColor=none;fillColor=none;" vertex="1" parent="1">
          <mxGeometry x="860" y="465" width="40" height="30" as="geometry" />
        </mxCell>
        <mxCell id="12CUieCOk4w_82OdE9bO-70" style="edgeStyle=none;rounded=0;orthogonalLoop=1;jettySize=auto;html=1;exitX=1;exitY=0.5;exitDx=0;exitDy=0;entryX=-0.007;entryY=0.067;entryDx=0;entryDy=0;entryPerimeter=0;endArrow=none;endFill=0;" edge="1" parent="1" source="12CUieCOk4w_82OdE9bO-66" target="12CUieCOk4w_82OdE9bO-7">
          <mxGeometry relative="1" as="geometry" />
        </mxCell>
        <mxCell id="12CUieCOk4w_82OdE9bO-66" value="consuter" style="ellipse;whiteSpace=wrap;html=1;" vertex="1" parent="1">
          <mxGeometry x="240" y="400" width="100" height="40" as="geometry" />
        </mxCell>
        <mxCell id="12CUieCOk4w_82OdE9bO-71" style="edgeStyle=none;rounded=0;orthogonalLoop=1;jettySize=auto;html=1;exitX=0;exitY=0.5;exitDx=0;exitDy=0;endArrow=none;endFill=0;" edge="1" parent="1" source="12CUieCOk4w_82OdE9bO-67">
          <mxGeometry relative="1" as="geometry">
            <mxPoint x="180" y="360" as="targetPoint" />
          </mxGeometry>
        </mxCell>
        <mxCell id="12CUieCOk4w_82OdE9bO-72" style="edgeStyle=none;rounded=0;orthogonalLoop=1;jettySize=auto;html=1;exitX=1;exitY=0.5;exitDx=0;exitDy=0;entryX=0.014;entryY=0.074;entryDx=0;entryDy=0;entryPerimeter=0;endArrow=none;endFill=0;" edge="1" parent="1" source="12CUieCOk4w_82OdE9bO-67" target="12CUieCOk4w_82OdE9bO-5">
          <mxGeometry relative="1" as="geometry" />
        </mxCell>
        <mxCell id="12CUieCOk4w_82OdE9bO-67" value="déposer" style="ellipse;whiteSpace=wrap;html=1;" vertex="1" parent="1">
          <mxGeometry x="240" y="340" width="100" height="40" as="geometry" />
        </mxCell>
        <mxCell id="12CUieCOk4w_82OdE9bO-69" style="rounded=0;orthogonalLoop=1;jettySize=auto;html=1;exitX=1;exitY=0.5;exitDx=0;exitDy=0;entryX=0;entryY=0.5;entryDx=0;entryDy=0;endArrow=none;endFill=0;" edge="1" parent="1" source="12CUieCOk4w_82OdE9bO-65" target="12CUieCOk4w_82OdE9bO-66">
          <mxGeometry relative="1" as="geometry" />
        </mxCell>
        <mxCell id="12CUieCOk4w_82OdE9bO-73" value="0, n" style="text;html=1;align=center;verticalAlign=middle;resizable=0;points=[];autosize=1;strokeColor=none;fillColor=none;" vertex="1" parent="1">
          <mxGeometry x="180" y="395" width="40" height="30" as="geometry" />
        </mxCell>
        <mxCell id="12CUieCOk4w_82OdE9bO-74" value="0, n" style="text;html=1;align=center;verticalAlign=middle;resizable=0;points=[];autosize=1;strokeColor=none;fillColor=none;" vertex="1" parent="1">
          <mxGeometry x="350" y="395" width="40" height="30" as="geometry" />
        </mxCell>
        <mxCell id="12CUieCOk4w_82OdE9bO-75" value="0, n" style="text;html=1;align=center;verticalAlign=middle;resizable=0;points=[];autosize=1;strokeColor=none;fillColor=none;" vertex="1" parent="1">
          <mxGeometry x="180" y="325" width="40" height="30" as="geometry" />
        </mxCell>
        <mxCell id="12CUieCOk4w_82OdE9bO-76" value="1, 1" style="text;html=1;align=center;verticalAlign=middle;resizable=0;points=[];autosize=1;strokeColor=none;fillColor=none;" vertex="1" parent="1">
          <mxGeometry x="360" y="335" width="40" height="30" as="geometry" />
        </mxCell>
      </root>
    </mxGraphModel>
  </diagram>
</mxfile>
